<svg width="62" height="9" viewBox="0 0 62 9" fill="none" xmlns="http://www.w3.org/2000/svg">
<path d="M11.1433 0.247485H13.0863L13.9526 6.44772H13.9773L14.8437 0.247485H16.7866V8.91049H15.4996V2.35136H15.4748L14.4848 8.91049H13.3462L12.3561 2.35136H12.3314V8.91049H11.1433V0.247485Z" fill="white"/>
<path d="M17.8025 0.247485H21.5152V1.48506H19.1638V3.77457H21.0326V5.01214H19.1638V7.67292H21.5152V8.91049H17.8025V0.247485Z" fill="white"/>
<path d="M22.2984 0.247485H23.6597V7.67292H25.8997V8.91049H22.2984V0.247485Z" fill="white"/>
<path d="M26.5525 0.247485H27.9139V8.91049H26.5525V0.247485Z" fill="white"/>
<path d="M33.2479 8.91052C32.5879 8.91052 32.0846 8.72488 31.7381 8.35361C31.3916 7.97409 31.2183 7.43368 31.2183 6.73239V2.17813C31.2183 1.47684 31.3916 0.940554 31.7381 0.569283C32.0846 0.18976 32.5879 0 33.2479 0C33.908 0 34.4113 0.18976 34.7578 0.569283C35.1043 0.940554 35.2776 1.47684 35.2776 2.17813V2.92067H33.9905V2.0915C33.9905 1.52221 33.7553 1.23757 33.2851 1.23757C32.8148 1.23757 32.5796 1.52221 32.5796 2.0915V6.8314C32.5796 7.39243 32.8148 7.67295 33.2851 7.67295C33.7553 7.67295 33.9905 7.39243 33.9905 6.8314V5.13592H33.3098V3.89835H35.2776V6.73239C35.2776 7.43368 35.1043 7.97409 34.7578 8.35361C34.4113 8.72488 33.908 8.91052 33.2479 8.91052Z" fill="white"/>
<path d="M36.1516 0.123756H38.1688C38.8701 0.123756 39.3816 0.288767 39.7034 0.618786C40.0252 0.940554 40.1861 1.43971 40.1861 2.11625V2.6484C40.1861 3.54771 39.8891 4.11699 39.295 4.35625V4.381C39.625 4.48001 39.8561 4.68215 39.9881 4.98741C40.1283 5.29268 40.1984 5.70108 40.1984 6.21261V7.73483C40.1984 7.98234 40.2067 8.18448 40.2232 8.34123C40.2397 8.48974 40.281 8.63825 40.347 8.78676H38.9609C38.9114 8.6465 38.8784 8.51449 38.8619 8.39074C38.8454 8.26698 38.8371 8.04422 38.8371 7.72245V6.13836C38.8371 5.74233 38.7711 5.46594 38.6391 5.30918C38.5153 5.15242 38.2967 5.07405 37.9832 5.07405H37.5129V8.78676H36.1516V0.123756ZM38.0079 3.83647C38.2802 3.83647 38.4823 3.76634 38.6144 3.62609C38.7546 3.48583 38.8247 3.25069 38.8247 2.92067V2.25238C38.8247 1.93886 38.767 1.71197 38.6515 1.57172C38.5442 1.43146 38.371 1.36133 38.1317 1.36133H37.5129V3.83647H38.0079Z" fill="white"/>
<path d="M43.1107 8.91052C42.4424 8.91052 41.9309 8.72076 41.5761 8.34123C41.2213 7.96171 41.044 7.42543 41.044 6.73239V2.17813C41.044 1.48509 41.2213 0.948805 41.5761 0.569283C41.9309 0.18976 42.4424 0 43.1107 0C43.779 0 44.2905 0.18976 44.6453 0.569283C45.0001 0.948805 45.1774 1.48509 45.1774 2.17813V6.73239C45.1774 7.42543 45.0001 7.96171 44.6453 8.34123C44.2905 8.72076 43.779 8.91052 43.1107 8.91052ZM43.1107 7.67295C43.581 7.67295 43.8161 7.3883 43.8161 6.81902V2.0915C43.8161 1.52221 43.581 1.23757 43.1107 1.23757C42.6404 1.23757 42.4053 1.52221 42.4053 2.0915V6.81902C42.4053 7.3883 42.6404 7.67295 43.1107 7.67295Z" fill="white"/>
<path d="M45.7763 0.123756H47.0881L47.6945 6.78189H47.7193L48.3628 0.123756H49.8479L50.4915 6.78189H50.5162L51.1226 0.123756H52.2983L51.4196 8.78676H49.7242L49.1054 2.94542H49.0806L48.4618 8.78676H46.655L45.7763 0.123756Z" fill="white"/>
<path d="M54.0996 1.36133H52.6764V0.123756H56.8841V1.36133H55.4609V8.78676H54.0996V1.36133Z" fill="white"/>
<path d="M57.5432 0.123756H58.9045V3.65084H60.3649V0.123756H61.7262V8.78676H60.3649V4.88841H58.9045V8.78676H57.5432V0.123756Z" fill="white"/>
<rect y="5.94035" width="2.97017" height="2.97017" fill="#FDD400"/>
<rect x="2.96997" y="5.94035" width="2.97017" height="2.97017" fill="#C1A200"/>
<rect x="5.94019" y="5.94035" width="2.97017" height="2.97017" fill="#7D6900"/>
<rect x="5.94019" y="2.97017" width="2.97017" height="2.97017" fill="#C1A200"/>
<rect x="5.94019" width="2.97017" height="2.97017" fill="#FDD400"/>
<rect x="2.96997" y="2.97017" width="2.97017" height="2.97017" fill="#FDD400"/>
</svg>
